<?xml version="1.0" encoding="iso-8859-1"?>
<!-- Generator: Adobe Illustrator 19.0.0, SVG Export Plug-In . SVG Version: 6.00 Build 0)  -->
<svg version="1.1" id="Capa_1" xmlns="http://www.w3.org/2000/svg" xmlns:xlink="http://www.w3.org/1999/xlink" x="0px" y="0px"
	 viewBox="0 0 512 512" style="enable-background:new 0 0 512 512;" xml:space="preserve">
<g>
	<g>
		<path d="M504.485,241.137c4.151,0,7.515-3.365,7.515-7.515v-49.763c0-2.407-1.204-4.733-3.165-6.128l-27.782-19.716
			c-0.358-0.254-0.732-0.464-1.115-0.647V63.624c0-4.15-3.364-7.515-7.515-7.515H337.459l-77.11-54.723
			c-2.605-1.849-6.094-1.849-8.699,0l-76.845,54.536c-0.083,0.059-0.157,0.125-0.237,0.187H39.577c-4.15,0-7.515,3.365-7.515,7.515
			v93.646c-0.219,0.125-0.435,0.262-0.646,0.411L3.165,177.73C1.203,179.123,0,181.453,0,183.859v320.626
			C0,508.635,3.365,512,7.515,512h496.971c4.084,0,7.515-3.435,7.515-7.515V269.694c0-4.15-3.364-7.515-7.515-7.515
			c-4.151,0-7.515,3.365-7.515,7.515v221.001L269.862,344.172L496.971,197.65v35.972
			C496.971,237.772,500.334,241.137,504.485,241.137z M256,16.73l55.489,39.38H200.51L256,16.73z M32.063,175.653v15.1
			l-11.146-7.191L32.063,175.653z M478.977,496.971H15.029V197.65L478.977,496.971z M464.908,200.449L256,335.23L47.092,200.449
			V71.139h417.816V200.449z M479.937,190.753v-15.1l11.146,7.909L479.937,190.753z"/>
	</g>
</g>
<g>
	<g>
		<path d="M256,232.454c-17.403,0-31.562,14.159-31.562,31.562c0,17.403,14.159,31.562,31.562,31.562s31.562-14.159,31.562-31.562
			C287.562,246.613,273.403,232.454,256,232.454z M256,280.548c-9.116,0-16.532-7.416-16.532-16.532
			c0-9.116,7.417-16.532,16.532-16.532s16.532,7.417,16.532,16.532C272.532,273.131,265.116,280.548,256,280.548z"/>
	</g>
</g>
<g>
	<g>
		<path d="M363.337,148.663c-28.67-28.67-66.789-44.46-107.337-44.46c-40.546,0-78.667,15.79-107.336,44.461
			c-2.935,2.935-2.935,7.693,0,10.627c2.935,2.935,7.693,2.935,10.627,0c25.831-25.831,60.177-40.058,96.709-40.058
			s70.877,14.227,96.709,40.058c3.056,3.056,8.217,2.851,11.028-0.431C366.254,155.918,366.072,151.4,363.337,148.663z"/>
	</g>
</g>
<g>
	<g>
		<path d="M329.33,182.672c-19.588-19.587-45.63-30.374-73.33-30.374s-53.742,10.787-73.329,30.373
			c-2.935,2.935-2.935,7.693,0,10.627c2.935,2.935,7.693,2.935,10.627,0c16.749-16.748,39.017-25.971,62.702-25.971
			s45.953,9.224,62.701,25.972c3.056,3.056,8.217,2.851,11.028-0.431C332.247,189.927,332.066,185.408,329.33,182.672z"/>
	</g>
</g>
<g>
	<g>
		<path d="M300.989,211.011c-12.017-12.018-27.995-18.635-44.989-18.635s-32.972,6.618-44.989,18.635
			c-2.896,2.895-2.896,7.732,0,10.627c2.895,2.895,7.732,2.895,10.627,0c9.179-9.178,21.382-14.233,34.361-14.233
			c12.98,0,25.183,5.055,34.361,14.233c3.057,3.056,8.217,2.851,11.028-0.431C303.906,218.266,303.724,213.746,300.989,211.011z"/>
	</g>
</g>
<g>
</g>
<g>
</g>
<g>
</g>
<g>
</g>
<g>
</g>
<g>
</g>
<g>
</g>
<g>
</g>
<g>
</g>
<g>
</g>
<g>
</g>
<g>
</g>
<g>
</g>
<g>
</g>
<g>
</g>
</svg>
